<?xml version="1.0" encoding="utf-8" standalone="no"?>
<!DOCTYPE svg PUBLIC "-//W3C//DTD SVG 1.1//EN"
  "http://www.w3.org/Graphics/SVG/1.1/DTD/svg11.dtd">
<svg xmlns:xlink="http://www.w3.org/1999/xlink" width="648pt" height="720pt" viewBox="0 0 648 720" xmlns="http://www.w3.org/2000/svg" version="1.1">
 <metadata>
  <rdf:RDF xmlns:dc="http://purl.org/dc/elements/1.1/" xmlns:cc="http://creativecommons.org/ns#" xmlns:rdf="http://www.w3.org/1999/02/22-rdf-syntax-ns#">
   <cc:Work>
    <dc:type rdf:resource="http://purl.org/dc/dcmitype/StillImage"/>
    <dc:date>2025-11-29T15:05:13.360994</dc:date>
    <dc:format>image/svg+xml</dc:format>
    <dc:creator>
     <cc:Agent>
      <dc:title>Matplotlib v3.10.7, https://matplotlib.org/</dc:title>
     </cc:Agent>
    </dc:creator>
   </cc:Work>
  </rdf:RDF>
 </metadata>
 <defs>
  <style type="text/css">*{stroke-linejoin: round; stroke-linecap: butt}</style>
 </defs>
 <g id="figure_1">
  <g id="patch_1">
   <path d="M 0 720 
L 648 720 
L 648 0 
L 0 0 
z
" style="fill: #ffffff"/>
  </g>
  <g id="axes_1">
   <g id="patch_2">
    <path d="M 81 640.8 
L 299.347826 640.8 
L 299.347826 86.4 
L 81 86.4 
z
" style="fill: #ffffff"/>
   </g>
   <g id="FillBetweenPolyCollection_1">
    <defs>
     <path id="md69ca42253" d="M 90.924901 -377.803847 
L 90.924901 -608.4 
L 94.975881 -600.490584 
L 99.026861 -592.574813 
L 103.077841 -584.653093 
L 107.128821 -576.725432 
L 111.179802 -568.791647 
L 115.230782 -560.851572 
L 119.281762 -552.905268 
L 123.332742 -544.953225 
L 127.383722 -536.996533 
L 131.434702 -529.037034 
L 135.485682 -521.077438 
L 139.536662 -513.121407 
L 143.587642 -505.1736 
L 147.638622 -497.239685 
L 151.689602 -489.326332 
L 155.740582 -481.44116 
L 159.791562 -473.592682 
L 163.842543 -465.790225 
L 167.893523 -458.043841 
L 171.944503 -450.364215 
L 175.995483 -442.76257 
L 180.046463 -435.250583 
L 184.097443 -427.840296 
L 188.148423 -420.544057 
L 192.199403 -413.374459 
L 196.250383 -406.3443 
L 200.301363 -399.466565 
L 204.352343 -392.754416 
L 208.403323 -386.221207 
L 212.454303 -379.880509 
L 216.505284 -373.746153 
L 220.556264 -367.832279 
L 224.607244 -362.153401 
L 228.658224 -356.724466 
L 232.709204 -351.56092 
L 236.760184 -346.678762 
L 240.811164 -342.094585 
L 244.862144 -337.825596 
L 248.913124 -333.889611 
L 252.964104 -330.305 
L 257.015084 -327.090603 
L 261.066064 -324.265582 
L 265.117044 -321.849218 
L 269.168025 -319.860647 
L 273.219005 -318.318547 
L 277.269985 -317.240757 
L 281.320965 -316.643873 
L 285.371945 -316.542813 
L 289.422925 -316.950388 
L 289.422925 -104.4 
L 289.422925 -104.4 
L 285.371945 -106.973348 
L 281.320965 -109.631238 
L 277.269985 -112.390604 
L 273.219005 -115.26888 
L 269.168025 -118.283527 
L 265.117044 -121.45157 
L 261.066064 -124.789164 
L 257.015084 -128.311204 
L 252.964104 -132.030997 
L 248.913124 -135.959994 
L 244.862144 -140.107598 
L 240.811164 -144.481029 
L 236.760184 -149.085257 
L 232.709204 -153.922979 
L 228.658224 -158.994654 
L 224.607244 -164.298563 
L 220.556264 -169.830904 
L 216.505284 -175.585908 
L 212.454303 -181.555965 
L 208.403323 -187.731767 
L 204.352343 -194.10244 
L 200.301363 -200.65569 
L 196.250383 -207.377927 
L 192.199403 -214.254396 
L 188.148423 -221.269283 
L 184.097443 -228.405817 
L 180.046463 -235.646358 
L 175.995483 -242.972462 
L 171.944503 -250.364946 
L 167.893523 -257.803931 
L 163.842543 -265.268877 
L 159.791562 -272.738611 
L 155.740582 -280.191351 
L 151.689602 -287.604729 
L 147.638622 -294.955814 
L 143.587642 -302.221148 
L 139.536662 -309.376793 
L 135.485682 -316.398395 
L 131.434702 -323.261269 
L 127.383722 -329.940518 
L 123.332742 -336.411163 
L 119.281762 -342.648328 
L 115.230782 -348.627426 
L 111.179802 -354.324397 
L 107.128821 -359.715948 
L 103.077841 -364.77982 
L 99.026861 -369.495055 
L 94.975881 -373.842258 
L 90.924901 -377.803847 
z
" style="stroke: #1f77b4; stroke-opacity: 0.2"/>
    </defs>
    <g clip-path="url(#pd058d389cf)">
     <use xlink:href="#md69ca42253" x="0" y="720" style="fill: #1f77b4; fill-opacity: 0.2; stroke: #1f77b4; stroke-opacity: 0.2"/>
    </g>
   </g>
   <g id="FillBetweenPolyCollection_2">
    <defs>
     <path id="mfde996c2ce" d="M 90.924901 -482.674546 
L 90.924901 -503.529301 
L 94.975881 -497.627747 
L 99.026861 -491.530178 
L 103.077841 -485.235537 
L 107.128821 -478.746226 
L 111.179802 -472.067895 
L 115.230782 -465.209181 
L 119.281762 -458.18143 
L 123.332742 -450.998421 
L 127.383722 -443.676095 
L 131.434702 -436.232277 
L 135.485682 -428.686383 
L 139.536662 -421.05908 
L 143.587642 -413.371915 
L 147.638622 -405.646872 
L 151.689602 -397.905876 
L 155.740582 -390.170264 
L 159.791562 -382.460256 
L 163.842543 -374.79448 
L 167.893523 -367.18962 
L 171.944503 -359.660223 
L 175.995483 -352.218699 
L 180.046463 -344.875501 
L 184.097443 -337.639433 
L 188.148423 -330.518043 
L 192.199403 -323.518035 
L 196.250383 -316.645669 
L 200.301363 -309.907112 
L 204.352343 -303.308764 
L 208.403323 -296.857542 
L 212.454303 -290.561171 
L 216.505284 -284.428497 
L 220.556264 -278.469871 
L 224.607244 -272.697642 
L 228.658224 -267.126809 
L 232.709204 -261.775889 
L 236.760184 -256.667997 
L 240.811164 -251.832076 
L 244.862144 -247.30395 
L 248.913124 -243.126545 
L 252.964104 -239.348121 
L 257.015084 -236.017523 
L 261.066064 -233.176752 
L 265.117044 -230.853637 
L 269.168025 -229.058417 
L 273.219005 -227.785717 
L 277.269985 -227.019839 
L 281.320965 -226.740137 
L 285.371945 -226.924678 
L 289.422925 -227.55206 
L 289.422925 -193.798329 
L 289.422925 -193.798329 
L 285.371945 -196.591483 
L 281.320965 -199.534973 
L 277.269985 -202.611522 
L 273.219005 -205.80171 
L 269.168025 -209.085757 
L 265.117044 -212.447151 
L 261.066064 -215.877994 
L 257.015084 -219.384284 
L 252.964104 -222.987875 
L 248.913124 -226.72306 
L 244.862144 -230.629244 
L 240.811164 -234.743538 
L 236.760184 -239.096021 
L 232.709204 -243.708011 
L 228.658224 -248.592312 
L 224.607244 -253.754322 
L 220.556264 -259.193312 
L 216.505284 -264.903563 
L 212.454303 -270.875303 
L 208.403323 -277.095432 
L 204.352343 -283.548092 
L 200.301363 -290.215143 
L 196.250383 -297.076559 
L 192.199403 -304.11082 
L 188.148423 -311.295297 
L 184.097443 -318.606681 
L 180.046463 -326.021439 
L 175.995483 -333.516333 
L 171.944503 -341.068938 
L 167.893523 -348.658152 
L 163.842543 -356.264621 
L 159.791562 -363.871037 
L 155.740582 -371.462247 
L 151.689602 -379.025185 
L 147.638622 -386.548628 
L 143.587642 -394.022832 
L 139.536662 -401.439121 
L 135.485682 -408.789451 
L 131.434702 -416.066026 
L 127.383722 -423.260956 
L 123.332742 -430.365968 
L 119.281762 -437.372166 
L 115.230782 -444.269817 
L 111.179802 -451.048149 
L 107.128821 -457.695154 
L 103.077841 -464.197375 
L 99.026861 -470.53969 
L 94.975881 -476.705096 
L 90.924901 -482.674546 
z
" style="stroke: #1f77b4; stroke-opacity: 0.2"/>
    </defs>
    <g clip-path="url(#pd058d389cf)">
     <use xlink:href="#mfde996c2ce" x="0" y="720" style="fill: #1f77b4; fill-opacity: 0.2; stroke: #1f77b4; stroke-opacity: 0.2"/>
    </g>
   </g>
   <g id="matplotlib.axis_1">
    <g id="xtick_1">
     <g id="line2d_1">
      <defs>
       <path id="m2c676cb2ba" d="M 0 0 
L 0 3.5 
" style="stroke: #000000; stroke-width: 0.8"/>
      </defs>
      <g>
       <use xlink:href="#m2c676cb2ba" x="96.710209" y="640.8" style="stroke: #000000; stroke-width: 0.8"/>
      </g>
     </g>
     <g id="text_1">
      <!-- −1.50 -->
      <g transform="translate(81.387553 655.398438) scale(0.1 -0.1)">
       <defs>
        <path id="DejaVuSans-2212" d="M 678 2272 
L 4684 2272 
L 4684 1741 
L 678 1741 
L 678 2272 
z
" transform="scale(0.015625)"/>
        <path id="DejaVuSans-31" d="M 794 531 
L 1825 531 
L 1825 4091 
L 703 3866 
L 703 4441 
L 1819 4666 
L 2450 4666 
L 2450 531 
L 3481 531 
L 3481 0 
L 794 0 
L 794 531 
z
" transform="scale(0.015625)"/>
        <path id="DejaVuSans-2e" d="M 684 794 
L 1344 794 
L 1344 0 
L 684 0 
L 684 794 
z
" transform="scale(0.015625)"/>
        <path id="DejaVuSans-35" d="M 691 4666 
L 3169 4666 
L 3169 4134 
L 1269 4134 
L 1269 2991 
Q 1406 3038 1543 3061 
Q 1681 3084 1819 3084 
Q 2600 3084 3056 2656 
Q 3513 2228 3513 1497 
Q 3513 744 3044 326 
Q 2575 -91 1722 -91 
Q 1428 -91 1123 -41 
Q 819 9 494 109 
L 494 744 
Q 775 591 1075 516 
Q 1375 441 1709 441 
Q 2250 441 2565 725 
Q 2881 1009 2881 1497 
Q 2881 1984 2565 2268 
Q 2250 2553 1709 2553 
Q 1456 2553 1204 2497 
Q 953 2441 691 2322 
L 691 4666 
z
" transform="scale(0.015625)"/>
        <path id="DejaVuSans-30" d="M 2034 4250 
Q 1547 4250 1301 3770 
Q 1056 3291 1056 2328 
Q 1056 1369 1301 889 
Q 1547 409 2034 409 
Q 2525 409 2770 889 
Q 3016 1369 3016 2328 
Q 3016 3291 2770 3770 
Q 2525 4250 2034 4250 
z
M 2034 4750 
Q 2819 4750 3233 4129 
Q 3647 3509 3647 2328 
Q 3647 1150 3233 529 
Q 2819 -91 2034 -91 
Q 1250 -91 836 529 
Q 422 1150 422 2328 
Q 422 3509 836 4129 
Q 1250 4750 2034 4750 
z
" transform="scale(0.015625)"/>
       </defs>
       <use xlink:href="#DejaVuSans-2212"/>
       <use xlink:href="#DejaVuSans-31" transform="translate(83.789062 0)"/>
       <use xlink:href="#DejaVuSans-2e" transform="translate(147.412109 0)"/>
       <use xlink:href="#DejaVuSans-35" transform="translate(179.199219 0)"/>
       <use xlink:href="#DejaVuSans-30" transform="translate(242.822266 0)"/>
      </g>
     </g>
    </g>
    <g id="xtick_2">
     <g id="line2d_2">
      <g>
       <use xlink:href="#m2c676cb2ba" x="130.097258" y="640.8" style="stroke: #000000; stroke-width: 0.8"/>
      </g>
     </g>
     <g id="text_2">
      <!-- −1.25 -->
      <g transform="translate(114.774601 655.398438) scale(0.1 -0.1)">
       <defs>
        <path id="DejaVuSans-32" d="M 1228 531 
L 3431 531 
L 3431 0 
L 469 0 
L 469 531 
Q 828 903 1448 1529 
Q 2069 2156 2228 2338 
Q 2531 2678 2651 2914 
Q 2772 3150 2772 3378 
Q 2772 3750 2511 3984 
Q 2250 4219 1831 4219 
Q 1534 4219 1204 4116 
Q 875 4013 500 3803 
L 500 4441 
Q 881 4594 1212 4672 
Q 1544 4750 1819 4750 
Q 2544 4750 2975 4387 
Q 3406 4025 3406 3419 
Q 3406 3131 3298 2873 
Q 3191 2616 2906 2266 
Q 2828 2175 2409 1742 
Q 1991 1309 1228 531 
z
" transform="scale(0.015625)"/>
       </defs>
       <use xlink:href="#DejaVuSans-2212"/>
       <use xlink:href="#DejaVuSans-31" transform="translate(83.789062 0)"/>
       <use xlink:href="#DejaVuSans-2e" transform="translate(147.412109 0)"/>
       <use xlink:href="#DejaVuSans-32" transform="translate(179.199219 0)"/>
       <use xlink:href="#DejaVuSans-35" transform="translate(242.822266 0)"/>
      </g>
     </g>
    </g>
    <g id="xtick_3">
     <g id="line2d_3">
      <g>
       <use xlink:href="#m2c676cb2ba" x="163.484306" y="640.8" style="stroke: #000000; stroke-width: 0.8"/>
      </g>
     </g>
     <g id="text_3">
      <!-- −1.00 -->
      <g transform="translate(148.16165 655.398438) scale(0.1 -0.1)">
       <use xlink:href="#DejaVuSans-2212"/>
       <use xlink:href="#DejaVuSans-31" transform="translate(83.789062 0)"/>
       <use xlink:href="#DejaVuSans-2e" transform="translate(147.412109 0)"/>
       <use xlink:href="#DejaVuSans-30" transform="translate(179.199219 0)"/>
       <use xlink:href="#DejaVuSans-30" transform="translate(242.822266 0)"/>
      </g>
     </g>
    </g>
    <g id="xtick_4">
     <g id="line2d_4">
      <g>
       <use xlink:href="#m2c676cb2ba" x="196.871355" y="640.8" style="stroke: #000000; stroke-width: 0.8"/>
      </g>
     </g>
     <g id="text_4">
      <!-- −0.75 -->
      <g transform="translate(181.548699 655.398438) scale(0.1 -0.1)">
       <defs>
        <path id="DejaVuSans-37" d="M 525 4666 
L 3525 4666 
L 3525 4397 
L 1831 0 
L 1172 0 
L 2766 4134 
L 525 4134 
L 525 4666 
z
" transform="scale(0.015625)"/>
       </defs>
       <use xlink:href="#DejaVuSans-2212"/>
       <use xlink:href="#DejaVuSans-30" transform="translate(83.789062 0)"/>
       <use xlink:href="#DejaVuSans-2e" transform="translate(147.412109 0)"/>
       <use xlink:href="#DejaVuSans-37" transform="translate(179.199219 0)"/>
       <use xlink:href="#DejaVuSans-35" transform="translate(242.822266 0)"/>
      </g>
     </g>
    </g>
    <g id="xtick_5">
     <g id="line2d_5">
      <g>
       <use xlink:href="#m2c676cb2ba" x="230.258404" y="640.8" style="stroke: #000000; stroke-width: 0.8"/>
      </g>
     </g>
     <g id="text_5">
      <!-- −0.50 -->
      <g transform="translate(214.935747 655.398438) scale(0.1 -0.1)">
       <use xlink:href="#DejaVuSans-2212"/>
       <use xlink:href="#DejaVuSans-30" transform="translate(83.789062 0)"/>
       <use xlink:href="#DejaVuSans-2e" transform="translate(147.412109 0)"/>
       <use xlink:href="#DejaVuSans-35" transform="translate(179.199219 0)"/>
       <use xlink:href="#DejaVuSans-30" transform="translate(242.822266 0)"/>
      </g>
     </g>
    </g>
    <g id="xtick_6">
     <g id="line2d_6">
      <g>
       <use xlink:href="#m2c676cb2ba" x="263.645452" y="640.8" style="stroke: #000000; stroke-width: 0.8"/>
      </g>
     </g>
     <g id="text_6">
      <!-- −0.25 -->
      <g transform="translate(248.322796 655.398438) scale(0.1 -0.1)">
       <use xlink:href="#DejaVuSans-2212"/>
       <use xlink:href="#DejaVuSans-30" transform="translate(83.789062 0)"/>
       <use xlink:href="#DejaVuSans-2e" transform="translate(147.412109 0)"/>
       <use xlink:href="#DejaVuSans-32" transform="translate(179.199219 0)"/>
       <use xlink:href="#DejaVuSans-35" transform="translate(242.822266 0)"/>
      </g>
     </g>
    </g>
    <g id="xtick_7">
     <g id="line2d_7">
      <g>
       <use xlink:href="#m2c676cb2ba" x="297.032501" y="640.8" style="stroke: #000000; stroke-width: 0.8"/>
      </g>
     </g>
     <g id="text_7">
      <!-- 0.00 -->
      <g transform="translate(285.899689 655.398438) scale(0.1 -0.1)">
       <use xlink:href="#DejaVuSans-30"/>
       <use xlink:href="#DejaVuSans-2e" transform="translate(63.623047 0)"/>
       <use xlink:href="#DejaVuSans-30" transform="translate(95.410156 0)"/>
       <use xlink:href="#DejaVuSans-30" transform="translate(159.033203 0)"/>
      </g>
     </g>
    </g>
    <g id="text_8">
     <!-- VB_shift -->
     <g transform="translate(170.027819 669.076563) scale(0.1 -0.1)">
      <defs>
       <path id="DejaVuSans-56" d="M 1831 0 
L 50 4666 
L 709 4666 
L 2188 738 
L 3669 4666 
L 4325 4666 
L 2547 0 
L 1831 0 
z
" transform="scale(0.015625)"/>
       <path id="DejaVuSans-42" d="M 1259 2228 
L 1259 519 
L 2272 519 
Q 2781 519 3026 730 
Q 3272 941 3272 1375 
Q 3272 1813 3026 2020 
Q 2781 2228 2272 2228 
L 1259 2228 
z
M 1259 4147 
L 1259 2741 
L 2194 2741 
Q 2656 2741 2882 2914 
Q 3109 3088 3109 3444 
Q 3109 3797 2882 3972 
Q 2656 4147 2194 4147 
L 1259 4147 
z
M 628 4666 
L 2241 4666 
Q 2963 4666 3353 4366 
Q 3744 4066 3744 3513 
Q 3744 3084 3544 2831 
Q 3344 2578 2956 2516 
Q 3422 2416 3680 2098 
Q 3938 1781 3938 1306 
Q 3938 681 3513 340 
Q 3088 0 2303 0 
L 628 0 
L 628 4666 
z
" transform="scale(0.015625)"/>
       <path id="DejaVuSans-5f" d="M 3263 -1063 
L 3263 -1509 
L -63 -1509 
L -63 -1063 
L 3263 -1063 
z
" transform="scale(0.015625)"/>
       <path id="DejaVuSans-73" d="M 2834 3397 
L 2834 2853 
Q 2591 2978 2328 3040 
Q 2066 3103 1784 3103 
Q 1356 3103 1142 2972 
Q 928 2841 928 2578 
Q 928 2378 1081 2264 
Q 1234 2150 1697 2047 
L 1894 2003 
Q 2506 1872 2764 1633 
Q 3022 1394 3022 966 
Q 3022 478 2636 193 
Q 2250 -91 1575 -91 
Q 1294 -91 989 -36 
Q 684 19 347 128 
L 347 722 
Q 666 556 975 473 
Q 1284 391 1588 391 
Q 1994 391 2212 530 
Q 2431 669 2431 922 
Q 2431 1156 2273 1281 
Q 2116 1406 1581 1522 
L 1381 1569 
Q 847 1681 609 1914 
Q 372 2147 372 2553 
Q 372 3047 722 3315 
Q 1072 3584 1716 3584 
Q 2034 3584 2315 3537 
Q 2597 3491 2834 3397 
z
" transform="scale(0.015625)"/>
       <path id="DejaVuSans-68" d="M 3513 2113 
L 3513 0 
L 2938 0 
L 2938 2094 
Q 2938 2591 2744 2837 
Q 2550 3084 2163 3084 
Q 1697 3084 1428 2787 
Q 1159 2491 1159 1978 
L 1159 0 
L 581 0 
L 581 4863 
L 1159 4863 
L 1159 2956 
Q 1366 3272 1645 3428 
Q 1925 3584 2291 3584 
Q 2894 3584 3203 3211 
Q 3513 2838 3513 2113 
z
" transform="scale(0.015625)"/>
       <path id="DejaVuSans-69" d="M 603 3500 
L 1178 3500 
L 1178 0 
L 603 0 
L 603 3500 
z
M 603 4863 
L 1178 4863 
L 1178 4134 
L 603 4134 
L 603 4863 
z
" transform="scale(0.015625)"/>
       <path id="DejaVuSans-66" d="M 2375 4863 
L 2375 4384 
L 1825 4384 
Q 1516 4384 1395 4259 
Q 1275 4134 1275 3809 
L 1275 3500 
L 2222 3500 
L 2222 3053 
L 1275 3053 
L 1275 0 
L 697 0 
L 697 3053 
L 147 3053 
L 147 3500 
L 697 3500 
L 697 3744 
Q 697 4328 969 4595 
Q 1241 4863 1831 4863 
L 2375 4863 
z
" transform="scale(0.015625)"/>
       <path id="DejaVuSans-74" d="M 1172 4494 
L 1172 3500 
L 2356 3500 
L 2356 3053 
L 1172 3053 
L 1172 1153 
Q 1172 725 1289 603 
Q 1406 481 1766 481 
L 2356 481 
L 2356 0 
L 1766 0 
Q 1100 0 847 248 
Q 594 497 594 1153 
L 594 3053 
L 172 3053 
L 172 3500 
L 594 3500 
L 594 4494 
L 1172 4494 
z
" transform="scale(0.015625)"/>
      </defs>
      <use xlink:href="#DejaVuSans-56"/>
      <use xlink:href="#DejaVuSans-42" transform="translate(68.408203 0)"/>
      <use xlink:href="#DejaVuSans-5f" transform="translate(137.011719 0)"/>
      <use xlink:href="#DejaVuSans-73" transform="translate(187.011719 0)"/>
      <use xlink:href="#DejaVuSans-68" transform="translate(239.111328 0)"/>
      <use xlink:href="#DejaVuSans-69" transform="translate(302.490234 0)"/>
      <use xlink:href="#DejaVuSans-66" transform="translate(330.273438 0)"/>
      <use xlink:href="#DejaVuSans-74" transform="translate(363.728516 0)"/>
     </g>
    </g>
   </g>
   <g id="matplotlib.axis_2">
    <g id="ytick_1">
     <g id="line2d_8">
      <defs>
       <path id="mc25df6fa3a" d="M 0 0 
L -3.5 0 
" style="stroke: #000000; stroke-width: 0.8"/>
      </defs>
      <g>
       <use xlink:href="#mc25df6fa3a" x="81" y="579.888224" style="stroke: #000000; stroke-width: 0.8"/>
      </g>
     </g>
     <g id="text_9">
      <!-- −0.8 -->
      <g transform="translate(49.717187 583.687442) scale(0.1 -0.1)">
       <defs>
        <path id="DejaVuSans-38" d="M 2034 2216 
Q 1584 2216 1326 1975 
Q 1069 1734 1069 1313 
Q 1069 891 1326 650 
Q 1584 409 2034 409 
Q 2484 409 2743 651 
Q 3003 894 3003 1313 
Q 3003 1734 2745 1975 
Q 2488 2216 2034 2216 
z
M 1403 2484 
Q 997 2584 770 2862 
Q 544 3141 544 3541 
Q 544 4100 942 4425 
Q 1341 4750 2034 4750 
Q 2731 4750 3128 4425 
Q 3525 4100 3525 3541 
Q 3525 3141 3298 2862 
Q 3072 2584 2669 2484 
Q 3125 2378 3379 2068 
Q 3634 1759 3634 1313 
Q 3634 634 3220 271 
Q 2806 -91 2034 -91 
Q 1263 -91 848 271 
Q 434 634 434 1313 
Q 434 1759 690 2068 
Q 947 2378 1403 2484 
z
M 1172 3481 
Q 1172 3119 1398 2916 
Q 1625 2713 2034 2713 
Q 2441 2713 2670 2916 
Q 2900 3119 2900 3481 
Q 2900 3844 2670 4047 
Q 2441 4250 2034 4250 
Q 1625 4250 1398 4047 
Q 1172 3844 1172 3481 
z
" transform="scale(0.015625)"/>
       </defs>
       <use xlink:href="#DejaVuSans-2212"/>
       <use xlink:href="#DejaVuSans-30" transform="translate(83.789062 0)"/>
       <use xlink:href="#DejaVuSans-2e" transform="translate(147.412109 0)"/>
       <use xlink:href="#DejaVuSans-38" transform="translate(179.199219 0)"/>
      </g>
     </g>
    </g>
    <g id="ytick_2">
     <g id="line2d_9">
      <g>
       <use xlink:href="#mc25df6fa3a" x="81" y="502.251028" style="stroke: #000000; stroke-width: 0.8"/>
      </g>
     </g>
     <g id="text_10">
      <!-- −0.6 -->
      <g transform="translate(49.717187 506.050247) scale(0.1 -0.1)">
       <defs>
        <path id="DejaVuSans-36" d="M 2113 2584 
Q 1688 2584 1439 2293 
Q 1191 2003 1191 1497 
Q 1191 994 1439 701 
Q 1688 409 2113 409 
Q 2538 409 2786 701 
Q 3034 994 3034 1497 
Q 3034 2003 2786 2293 
Q 2538 2584 2113 2584 
z
M 3366 4563 
L 3366 3988 
Q 3128 4100 2886 4159 
Q 2644 4219 2406 4219 
Q 1781 4219 1451 3797 
Q 1122 3375 1075 2522 
Q 1259 2794 1537 2939 
Q 1816 3084 2150 3084 
Q 2853 3084 3261 2657 
Q 3669 2231 3669 1497 
Q 3669 778 3244 343 
Q 2819 -91 2113 -91 
Q 1303 -91 875 529 
Q 447 1150 447 2328 
Q 447 3434 972 4092 
Q 1497 4750 2381 4750 
Q 2619 4750 2861 4703 
Q 3103 4656 3366 4563 
z
" transform="scale(0.015625)"/>
       </defs>
       <use xlink:href="#DejaVuSans-2212"/>
       <use xlink:href="#DejaVuSans-30" transform="translate(83.789062 0)"/>
       <use xlink:href="#DejaVuSans-2e" transform="translate(147.412109 0)"/>
       <use xlink:href="#DejaVuSans-36" transform="translate(179.199219 0)"/>
      </g>
     </g>
    </g>
    <g id="ytick_3">
     <g id="line2d_10">
      <g>
       <use xlink:href="#mc25df6fa3a" x="81" y="424.613833" style="stroke: #000000; stroke-width: 0.8"/>
      </g>
     </g>
     <g id="text_11">
      <!-- −0.4 -->
      <g transform="translate(49.717187 428.413052) scale(0.1 -0.1)">
       <defs>
        <path id="DejaVuSans-34" d="M 2419 4116 
L 825 1625 
L 2419 1625 
L 2419 4116 
z
M 2253 4666 
L 3047 4666 
L 3047 1625 
L 3713 1625 
L 3713 1100 
L 3047 1100 
L 3047 0 
L 2419 0 
L 2419 1100 
L 313 1100 
L 313 1709 
L 2253 4666 
z
" transform="scale(0.015625)"/>
       </defs>
       <use xlink:href="#DejaVuSans-2212"/>
       <use xlink:href="#DejaVuSans-30" transform="translate(83.789062 0)"/>
       <use xlink:href="#DejaVuSans-2e" transform="translate(147.412109 0)"/>
       <use xlink:href="#DejaVuSans-34" transform="translate(179.199219 0)"/>
      </g>
     </g>
    </g>
    <g id="ytick_4">
     <g id="line2d_11">
      <g>
       <use xlink:href="#mc25df6fa3a" x="81" y="346.976638" style="stroke: #000000; stroke-width: 0.8"/>
      </g>
     </g>
     <g id="text_12">
      <!-- −0.2 -->
      <g transform="translate(49.717187 350.775856) scale(0.1 -0.1)">
       <use xlink:href="#DejaVuSans-2212"/>
       <use xlink:href="#DejaVuSans-30" transform="translate(83.789062 0)"/>
       <use xlink:href="#DejaVuSans-2e" transform="translate(147.412109 0)"/>
       <use xlink:href="#DejaVuSans-32" transform="translate(179.199219 0)"/>
      </g>
     </g>
    </g>
    <g id="ytick_5">
     <g id="line2d_12">
      <g>
       <use xlink:href="#mc25df6fa3a" x="81" y="269.339442" style="stroke: #000000; stroke-width: 0.8"/>
      </g>
     </g>
     <g id="text_13">
      <!-- 0.0 -->
      <g transform="translate(58.096875 273.138661) scale(0.1 -0.1)">
       <use xlink:href="#DejaVuSans-30"/>
       <use xlink:href="#DejaVuSans-2e" transform="translate(63.623047 0)"/>
       <use xlink:href="#DejaVuSans-30" transform="translate(95.410156 0)"/>
      </g>
     </g>
    </g>
    <g id="ytick_6">
     <g id="line2d_13">
      <g>
       <use xlink:href="#mc25df6fa3a" x="81" y="191.702247" style="stroke: #000000; stroke-width: 0.8"/>
      </g>
     </g>
     <g id="text_14">
      <!-- 0.2 -->
      <g transform="translate(58.096875 195.501466) scale(0.1 -0.1)">
       <use xlink:href="#DejaVuSans-30"/>
       <use xlink:href="#DejaVuSans-2e" transform="translate(63.623047 0)"/>
       <use xlink:href="#DejaVuSans-32" transform="translate(95.410156 0)"/>
      </g>
     </g>
    </g>
    <g id="ytick_7">
     <g id="line2d_14">
      <g>
       <use xlink:href="#mc25df6fa3a" x="81" y="114.065051" style="stroke: #000000; stroke-width: 0.8"/>
      </g>
     </g>
     <g id="text_15">
      <!-- 0.4 -->
      <g transform="translate(58.096875 117.86427) scale(0.1 -0.1)">
       <use xlink:href="#DejaVuSans-30"/>
       <use xlink:href="#DejaVuSans-2e" transform="translate(63.623047 0)"/>
       <use xlink:href="#DejaVuSans-34" transform="translate(95.410156 0)"/>
      </g>
     </g>
    </g>
    <g id="text_16">
     <!-- log(kr) -->
     <g transform="translate(43.6375 380.075) rotate(-90) scale(0.1 -0.1)">
      <defs>
       <path id="DejaVuSans-6c" d="M 603 4863 
L 1178 4863 
L 1178 0 
L 603 0 
L 603 4863 
z
" transform="scale(0.015625)"/>
       <path id="DejaVuSans-6f" d="M 1959 3097 
Q 1497 3097 1228 2736 
Q 959 2375 959 1747 
Q 959 1119 1226 758 
Q 1494 397 1959 397 
Q 2419 397 2687 759 
Q 2956 1122 2956 1747 
Q 2956 2369 2687 2733 
Q 2419 3097 1959 3097 
z
M 1959 3584 
Q 2709 3584 3137 3096 
Q 3566 2609 3566 1747 
Q 3566 888 3137 398 
Q 2709 -91 1959 -91 
Q 1206 -91 779 398 
Q 353 888 353 1747 
Q 353 2609 779 3096 
Q 1206 3584 1959 3584 
z
" transform="scale(0.015625)"/>
       <path id="DejaVuSans-67" d="M 2906 1791 
Q 2906 2416 2648 2759 
Q 2391 3103 1925 3103 
Q 1463 3103 1205 2759 
Q 947 2416 947 1791 
Q 947 1169 1205 825 
Q 1463 481 1925 481 
Q 2391 481 2648 825 
Q 2906 1169 2906 1791 
z
M 3481 434 
Q 3481 -459 3084 -895 
Q 2688 -1331 1869 -1331 
Q 1566 -1331 1297 -1286 
Q 1028 -1241 775 -1147 
L 775 -588 
Q 1028 -725 1275 -790 
Q 1522 -856 1778 -856 
Q 2344 -856 2625 -561 
Q 2906 -266 2906 331 
L 2906 616 
Q 2728 306 2450 153 
Q 2172 0 1784 0 
Q 1141 0 747 490 
Q 353 981 353 1791 
Q 353 2603 747 3093 
Q 1141 3584 1784 3584 
Q 2172 3584 2450 3431 
Q 2728 3278 2906 2969 
L 2906 3500 
L 3481 3500 
L 3481 434 
z
" transform="scale(0.015625)"/>
       <path id="DejaVuSans-28" d="M 1984 4856 
Q 1566 4138 1362 3434 
Q 1159 2731 1159 2009 
Q 1159 1288 1364 580 
Q 1569 -128 1984 -844 
L 1484 -844 
Q 1016 -109 783 600 
Q 550 1309 550 2009 
Q 550 2706 781 3412 
Q 1013 4119 1484 4856 
L 1984 4856 
z
" transform="scale(0.015625)"/>
       <path id="DejaVuSans-6b" d="M 581 4863 
L 1159 4863 
L 1159 1991 
L 2875 3500 
L 3609 3500 
L 1753 1863 
L 3688 0 
L 2938 0 
L 1159 1709 
L 1159 0 
L 581 0 
L 581 4863 
z
" transform="scale(0.015625)"/>
       <path id="DejaVuSans-72" d="M 2631 2963 
Q 2534 3019 2420 3045 
Q 2306 3072 2169 3072 
Q 1681 3072 1420 2755 
Q 1159 2438 1159 1844 
L 1159 0 
L 581 0 
L 581 3500 
L 1159 3500 
L 1159 2956 
Q 1341 3275 1631 3429 
Q 1922 3584 2338 3584 
Q 2397 3584 2469 3576 
Q 2541 3569 2628 3553 
L 2631 2963 
z
" transform="scale(0.015625)"/>
       <path id="DejaVuSans-29" d="M 513 4856 
L 1013 4856 
Q 1481 4119 1714 3412 
Q 1947 2706 1947 2009 
Q 1947 1309 1714 600 
Q 1481 -109 1013 -844 
L 513 -844 
Q 928 -128 1133 580 
Q 1338 1288 1338 2009 
Q 1338 2731 1133 3434 
Q 928 4138 513 4856 
z
" transform="scale(0.015625)"/>
      </defs>
      <use xlink:href="#DejaVuSans-6c"/>
      <use xlink:href="#DejaVuSans-6f" transform="translate(27.783203 0)"/>
      <use xlink:href="#DejaVuSans-67" transform="translate(88.964844 0)"/>
      <use xlink:href="#DejaVuSans-28" transform="translate(152.441406 0)"/>
      <use xlink:href="#DejaVuSans-6b" transform="translate(191.455078 0)"/>
      <use xlink:href="#DejaVuSans-72" transform="translate(249.365234 0)"/>
      <use xlink:href="#DejaVuSans-29" transform="translate(290.478516 0)"/>
     </g>
    </g>
   </g>
   <g id="line2d_15">
    <path d="M 90.924901 226.898076 
L 94.975881 232.833579 
L 99.026861 238.965066 
L 103.077841 245.283544 
L 107.128821 251.77931 
L 111.179802 258.441978 
L 115.230782 265.260501 
L 119.281762 272.223202 
L 123.332742 279.317806 
L 127.383722 286.531475 
L 131.434702 293.850848 
L 135.485682 301.262083 
L 139.536662 308.7509 
L 143.587642 316.302626 
L 147.638622 323.90225 
L 151.689602 331.534469 
L 155.740582 339.183744 
L 159.791562 346.834354 
L 163.842543 354.470449 
L 167.893523 362.076114 
L 171.944503 369.63542 
L 175.995483 377.132484 
L 180.046463 384.55153 
L 184.097443 391.876943 
L 188.148423 399.09333 
L 192.199403 406.185573 
L 196.250383 413.138886 
L 200.301363 419.938873 
L 204.352343 426.571572 
L 208.403323 433.023513 
L 212.454303 439.281763 
L 216.505284 445.33397 
L 220.556264 451.168408 
L 224.607244 456.774018 
L 228.658224 462.14044 
L 232.709204 467.25805 
L 236.760184 472.117991 
L 240.811164 476.712193 
L 244.862144 481.033403 
L 248.913124 485.075198 
L 252.964104 488.832002 
L 257.015084 492.299096 
L 261.066064 495.472627 
L 265.117044 498.349606 
L 269.168025 500.927913 
L 273.219005 503.206287 
L 277.269985 505.18432 
L 281.320965 506.862445 
L 285.371945 508.241919 
L 289.422925 509.324806 
" clip-path="url(#pd058d389cf)" style="fill: none; stroke: #1f77b4; stroke-width: 1.5; stroke-linecap: square"/>
   </g>
   <g id="line2d_16">
    <defs>
     <path id="m056c37066a" d="M 0 3 
C 0.795609 3 1.55874 2.683901 2.12132 2.12132 
C 2.683901 1.55874 3 0.795609 3 0 
C 3 -0.795609 2.683901 -1.55874 2.12132 -2.12132 
C 1.55874 -2.683901 0.795609 -3 0 -3 
C -0.795609 -3 -1.55874 -2.683901 -2.12132 -2.12132 
C -2.683901 -1.55874 -3 -0.795609 -3 0 
C -3 0.795609 -2.683901 1.55874 -2.12132 2.12132 
C -1.55874 2.683901 -0.795609 3 0 3 
z
" style="stroke: #1f77b4"/>
    </defs>
    <g clip-path="url(#pd058d389cf)">
     <use xlink:href="#m056c37066a" x="204.474254" y="269.339442" style="fill: #1f77b4; stroke: #1f77b4"/>
     <use xlink:href="#m056c37066a" x="225.462688" y="505.872721" style="fill: #1f77b4; stroke: #1f77b4"/>
     <use xlink:href="#m056c37066a" x="261.65692" y="498.559204" style="fill: #1f77b4; stroke: #1f77b4"/>
     <use xlink:href="#m056c37066a" x="277.221962" y="516.646595" style="fill: #1f77b4; stroke: #1f77b4"/>
     <use xlink:href="#m056c37066a" x="281.795988" y="464.683368" style="fill: #1f77b4; stroke: #1f77b4"/>
     <use xlink:href="#m056c37066a" x="289.422925" y="513.324326" style="fill: #1f77b4; stroke: #1f77b4"/>
     <use xlink:href="#m056c37066a" x="201.668406" y="512.046253" style="fill: #1f77b4; stroke: #1f77b4"/>
     <use xlink:href="#m056c37066a" x="218.51284" y="562.460485" style="fill: #1f77b4; stroke: #1f77b4"/>
     <use xlink:href="#m056c37066a" x="254.549485" y="520.52114" style="fill: #1f77b4; stroke: #1f77b4"/>
     <use xlink:href="#m056c37066a" x="268.609439" y="528.054574" style="fill: #1f77b4; stroke: #1f77b4"/>
     <use xlink:href="#m056c37066a" x="273.059265" y="486.927463" style="fill: #1f77b4; stroke: #1f77b4"/>
     <use xlink:href="#m056c37066a" x="285.055899" y="488.714143" style="fill: #1f77b4; stroke: #1f77b4"/>
     <use xlink:href="#m056c37066a" x="193.242851" y="519.678035" style="fill: #1f77b4; stroke: #1f77b4"/>
     <use xlink:href="#m056c37066a" x="212.751571" y="477.251806" style="fill: #1f77b4; stroke: #1f77b4"/>
     <use xlink:href="#m056c37066a" x="238.900307" y="474.025025" style="fill: #1f77b4; stroke: #1f77b4"/>
     <use xlink:href="#m056c37066a" x="248.589229" y="479.160579" style="fill: #1f77b4; stroke: #1f77b4"/>
     <use xlink:href="#m056c37066a" x="267.741375" y="546.71102" style="fill: #1f77b4; stroke: #1f77b4"/>
     <use xlink:href="#m056c37066a" x="269.533592" y="488.268783" style="fill: #1f77b4; stroke: #1f77b4"/>
     <use xlink:href="#m056c37066a" x="190.863022" y="472.47106" style="fill: #1f77b4; stroke: #1f77b4"/>
     <use xlink:href="#m056c37066a" x="209.790807" y="459.531638" style="fill: #1f77b4; stroke: #1f77b4"/>
     <use xlink:href="#m056c37066a" x="229.117902" y="442.026755" style="fill: #1f77b4; stroke: #1f77b4"/>
     <use xlink:href="#m056c37066a" x="237.968141" y="440.368042" style="fill: #1f77b4; stroke: #1f77b4"/>
     <use xlink:href="#m056c37066a" x="257.709235" y="493.583942" style="fill: #1f77b4; stroke: #1f77b4"/>
     <use xlink:href="#m056c37066a" x="267.806814" y="489.036524" style="fill: #1f77b4; stroke: #1f77b4"/>
     <use xlink:href="#m056c37066a" x="173.253357" y="419.252938" style="fill: #1f77b4; stroke: #1f77b4"/>
     <use xlink:href="#m056c37066a" x="194.357978" y="447.553755" style="fill: #1f77b4; stroke: #1f77b4"/>
     <use xlink:href="#m056c37066a" x="214.60522" y="429.044818" style="fill: #1f77b4; stroke: #1f77b4"/>
     <use xlink:href="#m056c37066a" x="223.340607" y="416.853908" style="fill: #1f77b4; stroke: #1f77b4"/>
     <use xlink:href="#m056c37066a" x="241.672768" y="471.165546" style="fill: #1f77b4; stroke: #1f77b4"/>
     <use xlink:href="#m056c37066a" x="255.247942" y="499.335801" style="fill: #1f77b4; stroke: #1f77b4"/>
     <use xlink:href="#m056c37066a" x="153.800727" y="364.297758" style="fill: #1f77b4; stroke: #1f77b4"/>
     <use xlink:href="#m056c37066a" x="174.059988" y="404.294993" style="fill: #1f77b4; stroke: #1f77b4"/>
     <use xlink:href="#m056c37066a" x="196.823278" y="399.790972" style="fill: #1f77b4; stroke: #1f77b4"/>
     <use xlink:href="#m056c37066a" x="221.524352" y="421.774021" style="fill: #1f77b4; stroke: #1f77b4"/>
     <use xlink:href="#m056c37066a" x="236.627317" y="520.51366" style="fill: #1f77b4; stroke: #1f77b4"/>
     <use xlink:href="#m056c37066a" x="250.114349" y="513.7118" style="fill: #1f77b4; stroke: #1f77b4"/>
     <use xlink:href="#m056c37066a" x="142.563982" y="290.076345" style="fill: #1f77b4; stroke: #1f77b4"/>
     <use xlink:href="#m056c37066a" x="161.244703" y="322.160196" style="fill: #1f77b4; stroke: #1f77b4"/>
     <use xlink:href="#m056c37066a" x="179.316445" y="328.591038" style="fill: #1f77b4; stroke: #1f77b4"/>
     <use xlink:href="#m056c37066a" x="196.367878" y="348.813495" style="fill: #1f77b4; stroke: #1f77b4"/>
     <use xlink:href="#m056c37066a" x="209.240589" y="414.368945" style="fill: #1f77b4; stroke: #1f77b4"/>
     <use xlink:href="#m056c37066a" x="215.098013" y="416.030901" style="fill: #1f77b4; stroke: #1f77b4"/>
     <use xlink:href="#m056c37066a" x="90.924901" y="225.265219" style="fill: #1f77b4; stroke: #1f77b4"/>
     <use xlink:href="#m056c37066a" x="111.176149" y="252.525123" style="fill: #1f77b4; stroke: #1f77b4"/>
     <use xlink:href="#m056c37066a" x="123.554732" y="286.783717" style="fill: #1f77b4; stroke: #1f77b4"/>
     <use xlink:href="#m056c37066a" x="127.207275" y="258.911188" style="fill: #1f77b4; stroke: #1f77b4"/>
     <use xlink:href="#m056c37066a" x="133.227627" y="267.01222" style="fill: #1f77b4; stroke: #1f77b4"/>
     <use xlink:href="#m056c37066a" x="136.698545" y="316.587032" style="fill: #1f77b4; stroke: #1f77b4"/>
    </g>
   </g>
   <g id="patch_3">
    <path d="M 81 640.8 
L 81 86.4 
" style="fill: none; stroke: #000000; stroke-width: 0.8; stroke-linejoin: miter; stroke-linecap: square"/>
   </g>
   <g id="patch_4">
    <path d="M 299.347826 640.8 
L 299.347826 86.4 
" style="fill: none; stroke: #000000; stroke-width: 0.8; stroke-linejoin: miter; stroke-linecap: square"/>
   </g>
   <g id="patch_5">
    <path d="M 81 640.8 
L 299.347826 640.8 
" style="fill: none; stroke: #000000; stroke-width: 0.8; stroke-linejoin: miter; stroke-linecap: square"/>
   </g>
   <g id="patch_6">
    <path d="M 81 86.4 
L 299.347826 86.4 
" style="fill: none; stroke: #000000; stroke-width: 0.8; stroke-linejoin: miter; stroke-linecap: square"/>
   </g>
  </g>
  <g id="axes_2">
   <g id="patch_7">
    <path d="M 364.852174 640.8 
L 583.2 640.8 
L 583.2 86.4 
L 364.852174 86.4 
z
" style="fill: #ffffff"/>
   </g>
   <g id="FillBetweenPolyCollection_3">
    <defs>
     <path id="m9ffa3ba39f" d="M 374.777075 -138.506557 
L 374.777075 -435.409841 
L 378.828055 -435.388162 
L 382.879035 -435.368062 
L 386.930015 -435.349542 
L 390.980995 -435.332603 
L 395.031975 -435.317245 
L 399.082956 -435.30347 
L 403.133936 -435.291278 
L 407.184916 -435.28067 
L 411.235896 -435.271646 
L 415.286876 -435.264206 
L 419.337856 -435.258352 
L 423.388836 -435.254083 
L 427.439816 -435.251399 
L 431.490796 -435.250302 
L 435.541776 -435.250792 
L 439.592756 -435.252868 
L 443.643736 -435.256531 
L 447.694716 -435.26178 
L 451.745697 -435.268617 
L 455.796677 -435.277041 
L 459.847657 -435.287051 
L 463.898637 -435.298649 
L 467.949617 -435.311833 
L 472.000597 -435.326605 
L 476.051577 -435.342962 
L 480.102557 -435.360906 
L 484.153537 -435.380435 
L 488.204517 -435.40155 
L 492.255497 -435.42425 
L 496.306477 -435.448535 
L 500.357457 -435.474404 
L 504.408438 -435.501856 
L 508.459418 -435.530891 
L 512.510398 -435.561509 
L 516.561378 -435.593709 
L 520.612358 -435.627489 
L 524.663338 -435.66285 
L 528.714318 -435.699789 
L 532.765298 -435.738308 
L 536.816278 -435.778404 
L 540.867258 -435.820076 
L 544.918238 -435.863324 
L 548.969218 -435.908147 
L 553.020198 -435.954543 
L 557.071179 -436.002511 
L 561.122159 -436.05205 
L 565.173139 -436.103159 
L 569.224119 -436.155837 
L 573.275099 -436.210081 
L 573.275099 -138.594756 
L 573.275099 -138.594756 
L 569.224119 -138.622177 
L 565.173139 -138.648392 
L 561.122159 -138.6734 
L 557.071179 -138.6972 
L 553.020198 -138.719791 
L 548.969218 -138.741171 
L 544.918238 -138.761339 
L 540.867258 -138.780294 
L 536.816278 -138.798036 
L 532.765298 -138.814563 
L 528.714318 -138.829875 
L 524.663338 -138.84397 
L 520.612358 -138.856847 
L 516.561378 -138.868507 
L 512.510398 -138.878947 
L 508.459418 -138.888168 
L 504.408438 -138.896169 
L 500.357457 -138.90295 
L 496.306477 -138.908509 
L 492.255497 -138.912846 
L 488.204517 -138.915961 
L 484.153537 -138.917853 
L 480.102557 -138.918522 
L 476.051577 -138.917968 
L 472.000597 -138.91619 
L 467.949617 -138.913188 
L 463.898637 -138.908963 
L 459.847657 -138.903513 
L 455.796677 -138.896839 
L 451.745697 -138.888941 
L 447.694716 -138.879818 
L 443.643736 -138.869471 
L 439.592756 -138.8579 
L 435.541776 -138.845106 
L 431.490796 -138.831087 
L 427.439816 -138.815845 
L 423.388836 -138.79938 
L 419.337856 -138.781692 
L 415.286876 -138.762781 
L 411.235896 -138.742649 
L 407.184916 -138.721294 
L 403.133936 -138.698719 
L 399.082956 -138.674923 
L 395.031975 -138.649908 
L 390.980995 -138.623673 
L 386.930015 -138.59622 
L 382.879035 -138.567549 
L 378.828055 -138.537661 
L 374.777075 -138.506557 
z
" style="stroke: #1f77b4; stroke-opacity: 0.2"/>
    </defs>
    <g clip-path="url(#p1070287bbb)">
     <use xlink:href="#m9ffa3ba39f" x="0" y="720" style="fill: #1f77b4; fill-opacity: 0.2; stroke: #1f77b4; stroke-opacity: 0.2"/>
    </g>
   </g>
   <g id="FillBetweenPolyCollection_4">
    <defs>
     <path id="m9db5760c60" d="M 374.777075 -272.335804 
L 374.777075 -301.580594 
L 378.828055 -301.588599 
L 382.879035 -301.596791 
L 386.930015 -301.605168 
L 390.980995 -301.613732 
L 395.031975 -301.622482 
L 399.082956 -301.631419 
L 403.133936 -301.640541 
L 407.184916 -301.64985 
L 411.235896 -301.659345 
L 415.286876 -301.669026 
L 419.337856 -301.678892 
L 423.388836 -301.688945 
L 427.439816 -301.699184 
L 431.490796 -301.709609 
L 435.541776 -301.72022 
L 439.592756 -301.731017 
L 443.643736 -301.741999 
L 447.694716 -301.753168 
L 451.745697 -301.764522 
L 455.796677 -301.776062 
L 459.847657 -301.787787 
L 463.898637 -301.799699 
L 467.949617 -301.811796 
L 472.000597 -301.824078 
L 476.051577 -301.836546 
L 480.102557 -301.8492 
L 484.153537 -301.862039 
L 488.204517 -301.875064 
L 492.255497 -301.888274 
L 496.306477 -301.90167 
L 500.357457 -301.915251 
L 504.408438 -301.929017 
L 508.459418 -301.942968 
L 512.510398 -301.957105 
L 516.561378 -301.971427 
L 520.612358 -301.985934 
L 524.663338 -302.000626 
L 528.714318 -302.015503 
L 532.765298 -302.030566 
L 536.816278 -302.045813 
L 540.867258 -302.061245 
L 544.918238 -302.076862 
L 548.969218 -302.092664 
L 553.020198 -302.108651 
L 557.071179 -302.124822 
L 561.122159 -302.141178 
L 565.173139 -302.157719 
L 569.224119 -302.174444 
L 573.275099 -302.191354 
L 573.275099 -272.613483 
L 573.275099 -272.613483 
L 569.224119 -272.603569 
L 565.173139 -272.593832 
L 561.122159 -272.584272 
L 557.071179 -272.574889 
L 553.020198 -272.565683 
L 548.969218 -272.556653 
L 544.918238 -272.547801 
L 540.867258 -272.539126 
L 536.816278 -272.530627 
L 532.765298 -272.522305 
L 528.714318 -272.514161 
L 524.663338 -272.506193 
L 520.612358 -272.498402 
L 516.561378 -272.490788 
L 512.510398 -272.483352 
L 508.459418 -272.476092 
L 504.408438 -272.469009 
L 500.357457 -272.462103 
L 496.306477 -272.455374 
L 492.255497 -272.448822 
L 488.204517 -272.442447 
L 484.153537 -272.436249 
L 480.102557 -272.430227 
L 476.051577 -272.424383 
L 472.000597 -272.418716 
L 467.949617 -272.413226 
L 463.898637 -272.407913 
L 459.847657 -272.402777 
L 455.796677 -272.397818 
L 451.745697 -272.393036 
L 447.694716 -272.388431 
L 443.643736 -272.384003 
L 439.592756 -272.379752 
L 435.541776 -272.375677 
L 431.490796 -272.37178 
L 427.439816 -272.36806 
L 423.388836 -272.364517 
L 419.337856 -272.361151 
L 415.286876 -272.357962 
L 411.235896 -272.35495 
L 407.184916 -272.352114 
L 403.133936 -272.349456 
L 399.082956 -272.346975 
L 395.031975 -272.344671 
L 390.980995 -272.342543 
L 386.930015 -272.340593 
L 382.879035 -272.33882 
L 378.828055 -272.337223 
L 374.777075 -272.335804 
z
" style="stroke: #1f77b4; stroke-opacity: 0.2"/>
    </defs>
    <g clip-path="url(#p1070287bbb)">
     <use xlink:href="#m9db5760c60" x="0" y="720" style="fill: #1f77b4; fill-opacity: 0.2; stroke: #1f77b4; stroke-opacity: 0.2"/>
    </g>
   </g>
   <g id="matplotlib.axis_3">
    <g id="xtick_8">
     <g id="line2d_17">
      <g>
       <use xlink:href="#m2c676cb2ba" x="374.887055" y="640.8" style="stroke: #000000; stroke-width: 0.8"/>
      </g>
     </g>
     <g id="text_17">
      <!-- 228 -->
      <g transform="translate(365.343305 655.398438) scale(0.1 -0.1)">
       <use xlink:href="#DejaVuSans-32"/>
       <use xlink:href="#DejaVuSans-32" transform="translate(63.623047 0)"/>
       <use xlink:href="#DejaVuSans-38" transform="translate(127.246094 0)"/>
      </g>
     </g>
    </g>
    <g id="xtick_9">
     <g id="line2d_18">
      <g>
       <use xlink:href="#m2c676cb2ba" x="407.987652" y="640.8" style="stroke: #000000; stroke-width: 0.8"/>
      </g>
     </g>
     <g id="text_18">
      <!-- 230 -->
      <g transform="translate(398.443902 655.398438) scale(0.1 -0.1)">
       <defs>
        <path id="DejaVuSans-33" d="M 2597 2516 
Q 3050 2419 3304 2112 
Q 3559 1806 3559 1356 
Q 3559 666 3084 287 
Q 2609 -91 1734 -91 
Q 1441 -91 1130 -33 
Q 819 25 488 141 
L 488 750 
Q 750 597 1062 519 
Q 1375 441 1716 441 
Q 2309 441 2620 675 
Q 2931 909 2931 1356 
Q 2931 1769 2642 2001 
Q 2353 2234 1838 2234 
L 1294 2234 
L 1294 2753 
L 1863 2753 
Q 2328 2753 2575 2939 
Q 2822 3125 2822 3475 
Q 2822 3834 2567 4026 
Q 2313 4219 1838 4219 
Q 1578 4219 1281 4162 
Q 984 4106 628 3988 
L 628 4550 
Q 988 4650 1302 4700 
Q 1616 4750 1894 4750 
Q 2613 4750 3031 4423 
Q 3450 4097 3450 3541 
Q 3450 3153 3228 2886 
Q 3006 2619 2597 2516 
z
" transform="scale(0.015625)"/>
       </defs>
       <use xlink:href="#DejaVuSans-32"/>
       <use xlink:href="#DejaVuSans-33" transform="translate(63.623047 0)"/>
       <use xlink:href="#DejaVuSans-30" transform="translate(127.246094 0)"/>
      </g>
     </g>
    </g>
    <g id="xtick_10">
     <g id="line2d_19">
      <g>
       <use xlink:href="#m2c676cb2ba" x="441.088249" y="640.8" style="stroke: #000000; stroke-width: 0.8"/>
      </g>
     </g>
     <g id="text_19">
      <!-- 232 -->
      <g transform="translate(431.544499 655.398438) scale(0.1 -0.1)">
       <use xlink:href="#DejaVuSans-32"/>
       <use xlink:href="#DejaVuSans-33" transform="translate(63.623047 0)"/>
       <use xlink:href="#DejaVuSans-32" transform="translate(127.246094 0)"/>
      </g>
     </g>
    </g>
    <g id="xtick_11">
     <g id="line2d_20">
      <g>
       <use xlink:href="#m2c676cb2ba" x="474.188846" y="640.8" style="stroke: #000000; stroke-width: 0.8"/>
      </g>
     </g>
     <g id="text_20">
      <!-- 234 -->
      <g transform="translate(464.645096 655.398438) scale(0.1 -0.1)">
       <use xlink:href="#DejaVuSans-32"/>
       <use xlink:href="#DejaVuSans-33" transform="translate(63.623047 0)"/>
       <use xlink:href="#DejaVuSans-34" transform="translate(127.246094 0)"/>
      </g>
     </g>
    </g>
    <g id="xtick_12">
     <g id="line2d_21">
      <g>
       <use xlink:href="#m2c676cb2ba" x="507.289443" y="640.8" style="stroke: #000000; stroke-width: 0.8"/>
      </g>
     </g>
     <g id="text_21">
      <!-- 236 -->
      <g transform="translate(497.745693 655.398438) scale(0.1 -0.1)">
       <use xlink:href="#DejaVuSans-32"/>
       <use xlink:href="#DejaVuSans-33" transform="translate(63.623047 0)"/>
       <use xlink:href="#DejaVuSans-36" transform="translate(127.246094 0)"/>
      </g>
     </g>
    </g>
    <g id="xtick_13">
     <g id="line2d_22">
      <g>
       <use xlink:href="#m2c676cb2ba" x="540.39004" y="640.8" style="stroke: #000000; stroke-width: 0.8"/>
      </g>
     </g>
     <g id="text_22">
      <!-- 238 -->
      <g transform="translate(530.84629 655.398438) scale(0.1 -0.1)">
       <use xlink:href="#DejaVuSans-32"/>
       <use xlink:href="#DejaVuSans-33" transform="translate(63.623047 0)"/>
       <use xlink:href="#DejaVuSans-38" transform="translate(127.246094 0)"/>
      </g>
     </g>
    </g>
    <g id="xtick_14">
     <g id="line2d_23">
      <g>
       <use xlink:href="#m2c676cb2ba" x="573.490637" y="640.8" style="stroke: #000000; stroke-width: 0.8"/>
      </g>
     </g>
     <g id="text_23">
      <!-- 240 -->
      <g transform="translate(563.946887 655.398438) scale(0.1 -0.1)">
       <use xlink:href="#DejaVuSans-32"/>
       <use xlink:href="#DejaVuSans-34" transform="translate(63.623047 0)"/>
       <use xlink:href="#DejaVuSans-30" transform="translate(127.246094 0)"/>
      </g>
     </g>
    </g>
    <g id="text_24">
     <!-- D -->
     <g transform="translate(470.176087 669.076563) scale(0.1 -0.1)">
      <defs>
       <path id="DejaVuSans-44" d="M 1259 4147 
L 1259 519 
L 2022 519 
Q 2988 519 3436 956 
Q 3884 1394 3884 2338 
Q 3884 3275 3436 3711 
Q 2988 4147 2022 4147 
L 1259 4147 
z
M 628 4666 
L 1925 4666 
Q 3281 4666 3915 4102 
Q 4550 3538 4550 2338 
Q 4550 1131 3912 565 
Q 3275 0 1925 0 
L 628 0 
L 628 4666 
z
" transform="scale(0.015625)"/>
      </defs>
      <use xlink:href="#DejaVuSans-44"/>
     </g>
    </g>
   </g>
   <g id="matplotlib.axis_4">
    <g id="ytick_8">
     <g id="line2d_24">
      <g>
       <use xlink:href="#mc25df6fa3a" x="364.852174" y="525.605955" style="stroke: #000000; stroke-width: 0.8"/>
      </g>
     </g>
     <g id="text_25">
      <!-- −0.6 -->
      <g transform="translate(333.569361 529.405173) scale(0.1 -0.1)">
       <use xlink:href="#DejaVuSans-2212"/>
       <use xlink:href="#DejaVuSans-30" transform="translate(83.789062 0)"/>
       <use xlink:href="#DejaVuSans-2e" transform="translate(147.412109 0)"/>
       <use xlink:href="#DejaVuSans-36" transform="translate(179.199219 0)"/>
      </g>
     </g>
    </g>
    <g id="ytick_9">
     <g id="line2d_25">
      <g>
       <use xlink:href="#mc25df6fa3a" x="364.852174" y="409.562966" style="stroke: #000000; stroke-width: 0.8"/>
      </g>
     </g>
     <g id="text_26">
      <!-- −0.4 -->
      <g transform="translate(333.569361 413.362184) scale(0.1 -0.1)">
       <use xlink:href="#DejaVuSans-2212"/>
       <use xlink:href="#DejaVuSans-30" transform="translate(83.789062 0)"/>
       <use xlink:href="#DejaVuSans-2e" transform="translate(147.412109 0)"/>
       <use xlink:href="#DejaVuSans-34" transform="translate(179.199219 0)"/>
      </g>
     </g>
    </g>
    <g id="ytick_10">
     <g id="line2d_26">
      <g>
       <use xlink:href="#mc25df6fa3a" x="364.852174" y="293.519977" style="stroke: #000000; stroke-width: 0.8"/>
      </g>
     </g>
     <g id="text_27">
      <!-- −0.2 -->
      <g transform="translate(333.569361 297.319195) scale(0.1 -0.1)">
       <use xlink:href="#DejaVuSans-2212"/>
       <use xlink:href="#DejaVuSans-30" transform="translate(83.789062 0)"/>
       <use xlink:href="#DejaVuSans-2e" transform="translate(147.412109 0)"/>
       <use xlink:href="#DejaVuSans-32" transform="translate(179.199219 0)"/>
      </g>
     </g>
    </g>
    <g id="ytick_11">
     <g id="line2d_27">
      <g>
       <use xlink:href="#mc25df6fa3a" x="364.852174" y="177.476988" style="stroke: #000000; stroke-width: 0.8"/>
      </g>
     </g>
     <g id="text_28">
      <!-- 0.0 -->
      <g transform="translate(341.949049 181.276206) scale(0.1 -0.1)">
       <use xlink:href="#DejaVuSans-30"/>
       <use xlink:href="#DejaVuSans-2e" transform="translate(63.623047 0)"/>
       <use xlink:href="#DejaVuSans-30" transform="translate(95.410156 0)"/>
      </g>
     </g>
    </g>
    <g id="text_29">
     <!-- log(kr) -->
     <g transform="translate(327.489674 380.075) rotate(-90) scale(0.1 -0.1)">
      <use xlink:href="#DejaVuSans-6c"/>
      <use xlink:href="#DejaVuSans-6f" transform="translate(27.783203 0)"/>
      <use xlink:href="#DejaVuSans-67" transform="translate(88.964844 0)"/>
      <use xlink:href="#DejaVuSans-28" transform="translate(152.441406 0)"/>
      <use xlink:href="#DejaVuSans-6b" transform="translate(191.455078 0)"/>
      <use xlink:href="#DejaVuSans-72" transform="translate(249.365234 0)"/>
      <use xlink:href="#DejaVuSans-29" transform="translate(290.478516 0)"/>
     </g>
    </g>
   </g>
   <g id="line2d_28">
    <path d="M 374.777075 433.041801 
L 378.828055 433.037089 
L 382.879035 433.032195 
L 386.930015 433.027119 
L 390.980995 433.021862 
L 395.031975 433.016423 
L 399.082956 433.010803 
L 403.133936 433.005001 
L 407.184916 432.999018 
L 411.235896 432.992853 
L 415.286876 432.986506 
L 419.337856 432.979978 
L 423.388836 432.973269 
L 427.439816 432.966378 
L 431.490796 432.959305 
L 435.541776 432.952051 
L 439.592756 432.944616 
L 443.643736 432.936999 
L 447.694716 432.929201 
L 451.745697 432.921221 
L 455.796677 432.91306 
L 459.847657 432.904718 
L 463.898637 432.896194 
L 467.949617 432.887489 
L 472.000597 432.878603 
L 476.051577 432.869535 
L 480.102557 432.860286 
L 484.153537 432.850856 
L 488.204517 432.841245 
L 492.255497 432.831452 
L 496.306477 432.821478 
L 500.357457 432.811323 
L 504.408438 432.800987 
L 508.459418 432.79047 
L 512.510398 432.779772 
L 516.561378 432.768892 
L 520.612358 432.757832 
L 524.663338 432.74659 
L 528.714318 432.735168 
L 532.765298 432.723565 
L 536.816278 432.71178 
L 540.867258 432.699815 
L 544.918238 432.687668 
L 548.969218 432.675341 
L 553.020198 432.662833 
L 557.071179 432.650145 
L 561.122159 432.637275 
L 565.173139 432.624224 
L 569.224119 432.610993 
L 573.275099 432.597581 
" clip-path="url(#p1070287bbb)" style="fill: none; stroke: #1f77b4; stroke-width: 1.5; stroke-linecap: square"/>
   </g>
   <g id="line2d_29">
    <g clip-path="url(#p1070287bbb)">
     <use xlink:href="#m056c37066a" x="414.644057" y="177.476988" style="fill: #1f77b4; stroke: #1f77b4"/>
     <use xlink:href="#m056c37066a" x="441.597123" y="531.019237" style="fill: #1f77b4; stroke: #1f77b4"/>
     <use xlink:href="#m056c37066a" x="480.47714" y="520.087848" style="fill: #1f77b4; stroke: #1f77b4"/>
     <use xlink:href="#m056c37066a" x="513.141815" y="547.122762" style="fill: #1f77b4; stroke: #1f77b4"/>
     <use xlink:href="#m056c37066a" x="536.219194" y="469.454214" style="fill: #1f77b4; stroke: #1f77b4"/>
     <use xlink:href="#m056c37066a" x="573.275099" y="542.157024" style="fill: #1f77b4; stroke: #1f77b4"/>
     <use xlink:href="#m056c37066a" x="431.389405" y="540.24671" style="fill: #1f77b4; stroke: #1f77b4"/>
     <use xlink:href="#m056c37066a" x="442.013988" y="615.6" style="fill: #1f77b4; stroke: #1f77b4"/>
     <use xlink:href="#m056c37066a" x="458.796739" y="552.913978" style="fill: #1f77b4; stroke: #1f77b4"/>
     <use xlink:href="#m056c37066a" x="488.443685" y="564.174073" style="fill: #1f77b4; stroke: #1f77b4"/>
     <use xlink:href="#m056c37066a" x="527.546067" y="502.702084" style="fill: #1f77b4; stroke: #1f77b4"/>
     <use xlink:href="#m056c37066a" x="572.258302" y="505.372603" style="fill: #1f77b4; stroke: #1f77b4"/>
     <use xlink:href="#m056c37066a" x="433.145209" y="551.653803" style="fill: #1f77b4; stroke: #1f77b4"/>
     <use xlink:href="#m056c37066a" x="439.803903" y="488.240045" style="fill: #1f77b4; stroke: #1f77b4"/>
     <use xlink:href="#m056c37066a" x="456.110341" y="483.41703" style="fill: #1f77b4; stroke: #1f77b4"/>
     <use xlink:href="#m056c37066a" x="481.354527" y="491.093054" style="fill: #1f77b4; stroke: #1f77b4"/>
     <use xlink:href="#m056c37066a" x="523.570767" y="592.059544" style="fill: #1f77b4; stroke: #1f77b4"/>
     <use xlink:href="#m056c37066a" x="553.921562" y="504.706932" style="fill: #1f77b4; stroke: #1f77b4"/>
     <use xlink:href="#m056c37066a" x="423.538835" y="481.094345" style="fill: #1f77b4; stroke: #1f77b4"/>
     <use xlink:href="#m056c37066a" x="425.280277" y="461.754012" style="fill: #1f77b4; stroke: #1f77b4"/>
     <use xlink:href="#m056c37066a" x="444.065793" y="435.589763" style="fill: #1f77b4; stroke: #1f77b4"/>
     <use xlink:href="#m056c37066a" x="470.333075" y="433.110512" style="fill: #1f77b4; stroke: #1f77b4"/>
     <use xlink:href="#m056c37066a" x="515.993083" y="512.651409" style="fill: #1f77b4; stroke: #1f77b4"/>
     <use xlink:href="#m056c37066a" x="533.474675" y="505.854461" style="fill: #1f77b4; stroke: #1f77b4"/>
     <use xlink:href="#m056c37066a" x="405.437289" y="401.550127" style="fill: #1f77b4; stroke: #1f77b4"/>
     <use xlink:href="#m056c37066a" x="415.681136" y="443.850875" style="fill: #1f77b4; stroke: #1f77b4"/>
     <use xlink:href="#m056c37066a" x="432.192673" y="416.185883" style="fill: #1f77b4; stroke: #1f77b4"/>
     <use xlink:href="#m056c37066a" x="459.980379" y="397.964339" style="fill: #1f77b4; stroke: #1f77b4"/>
     <use xlink:href="#m056c37066a" x="504.849874" y="479.143015" style="fill: #1f77b4; stroke: #1f77b4"/>
     <use xlink:href="#m056c37066a" x="530.918659" y="521.248614" style="fill: #1f77b4; stroke: #1f77b4"/>
     <use xlink:href="#m056c37066a" x="414.206823" y="319.409559" style="fill: #1f77b4; stroke: #1f77b4"/>
     <use xlink:href="#m056c37066a" x="424.017222" y="379.192743" style="fill: #1f77b4; stroke: #1f77b4"/>
     <use xlink:href="#m056c37066a" x="428.252507" y="372.46066" style="fill: #1f77b4; stroke: #1f77b4"/>
     <use xlink:href="#m056c37066a" x="455.80228" y="405.318346" style="fill: #1f77b4; stroke: #1f77b4"/>
     <use xlink:href="#m056c37066a" x="495.04834" y="552.902798" style="fill: #1f77b4; stroke: #1f77b4"/>
     <use xlink:href="#m056c37066a" x="518.078398" y="542.736174" style="fill: #1f77b4; stroke: #1f77b4"/>
     <use xlink:href="#m056c37066a" x="415.274282" y="208.472082" style="fill: #1f77b4; stroke: #1f77b4"/>
     <use xlink:href="#m056c37066a" x="421.111569" y="256.427265" style="fill: #1f77b4; stroke: #1f77b4"/>
     <use xlink:href="#m056c37066a" x="425.454198" y="266.039335" style="fill: #1f77b4; stroke: #1f77b4"/>
     <use xlink:href="#m056c37066a" x="463.828995" y="296.265496" style="fill: #1f77b4; stroke: #1f77b4"/>
     <use xlink:href="#m056c37066a" x="493.273449" y="394.250107" style="fill: #1f77b4; stroke: #1f77b4"/>
     <use xlink:href="#m056c37066a" x="507.947608" y="396.734204" style="fill: #1f77b4; stroke: #1f77b4"/>
     <use xlink:href="#m056c37066a" x="374.777075" y="111.6" style="fill: #1f77b4; stroke: #1f77b4"/>
     <use xlink:href="#m056c37066a" x="403.686997" y="152.344912" style="fill: #1f77b4; stroke: #1f77b4"/>
     <use xlink:href="#m056c37066a" x="414.124466" y="203.550646" style="fill: #1f77b4; stroke: #1f77b4"/>
     <use xlink:href="#m056c37066a" x="441.148975" y="161.890054" style="fill: #1f77b4; stroke: #1f77b4"/>
     <use xlink:href="#m056c37066a" x="466.228529" y="173.998528" style="fill: #1f77b4; stroke: #1f77b4"/>
     <use xlink:href="#m056c37066a" x="488.060976" y="248.097152" style="fill: #1f77b4; stroke: #1f77b4"/>
    </g>
   </g>
   <g id="patch_8">
    <path d="M 364.852174 640.8 
L 364.852174 86.4 
" style="fill: none; stroke: #000000; stroke-width: 0.8; stroke-linejoin: miter; stroke-linecap: square"/>
   </g>
   <g id="patch_9">
    <path d="M 583.2 640.8 
L 583.2 86.4 
" style="fill: none; stroke: #000000; stroke-width: 0.8; stroke-linejoin: miter; stroke-linecap: square"/>
   </g>
   <g id="patch_10">
    <path d="M 364.852174 640.8 
L 583.2 640.8 
" style="fill: none; stroke: #000000; stroke-width: 0.8; stroke-linejoin: miter; stroke-linecap: square"/>
   </g>
   <g id="patch_11">
    <path d="M 364.852174 86.4 
L 583.2 86.4 
" style="fill: none; stroke: #000000; stroke-width: 0.8; stroke-linejoin: miter; stroke-linecap: square"/>
   </g>
  </g>
 </g>
 <defs>
  <clipPath id="pd058d389cf">
   <rect x="81" y="86.4" width="218.347826" height="554.4"/>
  </clipPath>
  <clipPath id="p1070287bbb">
   <rect x="364.852174" y="86.4" width="218.347826" height="554.4"/>
  </clipPath>
 </defs>
</svg>
